<svg id="visual" viewBox="0 0 900 600" width="900" height="600" xmlns="http://www.w3.org/2000/svg" xmlns:xlink="http://www.w3.org/1999/xlink" version="1.1"><rect x="0" y="0" width="900" height="600" fill="#ffffff"></rect><g fill="#cbc3d8"><circle r="30" cx="590" cy="192"></circle><circle r="28" cx="895" cy="363"></circle><circle r="27" cx="130" cy="491"></circle><circle r="27" cx="512" cy="492"></circle><circle r="28" cx="773" cy="244"></circle><circle r="28" cx="643" cy="286"></circle><circle r="28" cx="205" cy="579"></circle><circle r="27" cx="466" cy="85"></circle><circle r="27" cx="34" cy="255"></circle><circle r="27" cx="172" cy="172"></circle><circle r="27" cx="421" cy="346"></circle><circle r="28" cx="776" cy="552"></circle><circle r="27" cx="701" cy="97"></circle><circle r="28" cx="488" cy="251"></circle><circle r="27" cx="246" cy="142"></circle><circle r="27" cx="589" cy="564"></circle><circle r="27" cx="55" cy="173"></circle><circle r="28" cx="721" cy="362"></circle><circle r="28" cx="594" cy="123"></circle><circle r="28" cx="294" cy="360"></circle><circle r="27" cx="805" cy="408"></circle><circle r="28" cx="11" cy="57"></circle><circle r="27" cx="841" cy="24"></circle><circle r="28" cx="113" cy="595"></circle><circle r="27" cx="352" cy="491"></circle><circle r="27" cx="19" cy="593"></circle><circle r="27" cx="150" cy="86"></circle><circle r="27" cx="299" cy="284"></circle><circle r="28" cx="365" cy="404"></circle><circle r="27" cx="896" cy="490"></circle><circle r="27" cx="294" cy="6"></circle><circle r="28" cx="94" cy="395"></circle><circle r="28" cx="526" cy="328"></circle><circle r="28" cx="507" cy="571"></circle><circle r="27" cx="438" cy="188"></circle></g></svg>